<svg xmlns="http://www.w3.org/2000/svg" width="1200" height="630" viewBox="0 0 1200 630">
  <defs>
    <linearGradient id="g" x1="0" y1="0" x2="1" y2="1">
      <stop offset="0%" stop-color="#1e3a8a"/>
      <stop offset="100%" stop-color="#2563eb"/>
    </linearGradient>
  </defs>
  <rect width="1200" height="630" fill="url(#g)"/>
  <g fill="#fff" opacity="0.08">
    <circle cx="200" cy="120" r="80"/>
    <circle cx="1050" cy="520" r="120"/>
    <rect x="820" y="60" width="220" height="140" rx="16"/>
  </g>
  <text x="80" y="150" font-family="Inter, Segoe UI, Roboto, Arial, sans-serif" font-size="56" fill="#ffffff" font-weight="700">CampusScore • G3 Predictor</text>
  <text x="80" y="210" font-family="Inter, Segoe UI, Roboto, Arial, sans-serif" font-size="28" fill="#dbeafe">FastAPI + Tailwind • RandomForestRegressor (tuned)</text>
  <g transform="translate(80,260)">
    <rect width="520" height="260" rx="16" fill="#0f172a" opacity="0.4"/>
    <text x="24" y="48" font-family="Inter, Segoe UI, Roboto, Arial, sans-serif" font-size="22" fill="#ffffff" font-weight="600">Student Profile</text>
    <text x="24" y="88" font-family="Inter, Segoe UI, Roboto, Arial, sans-serif" font-size="16" fill="#e2e8f0">School, Sex, Address, Studytime, G1, G2 ...</text>
    <rect x="24" y="110" width="472" height="10" fill="#60a5fa" opacity="0.6"/>
    <rect x="24" y="130" width="420" height="10" fill="#93c5fd" opacity="0.6"/>
    <rect x="24" y="150" width="460" height="10" fill="#60a5fa" opacity="0.6"/>
    <rect x="24" y="170" width="380" height="10" fill="#93c5fd" opacity="0.6"/>
    <rect x="24" y="210" width="180" height="26" rx="6" fill="#3b82f6"/>
    <text x="34" y="229" font-family="Inter, Segoe UI, Roboto, Arial, sans-serif" font-size="14" fill="#ffffff">Predict Final Grade (G3)</text>
  </g>
  <g transform="translate(640,260)">
    <rect width="460" height="260" rx="16" fill="#f8fafc" opacity="0.9"/>
    <text x="24" y="48" font-family="Inter, Segoe UI, Roboto, Arial, sans-serif" font-size="22" fill="#0f172a" font-weight="600">Prediction</text>
    <text x="24" y="105" font-family="Inter, Segoe UI, Roboto, Arial, sans-serif" font-size="52" fill="#1d4ed8" font-weight="700">12.34</text>
    <text x="24" y="140" font-family="Inter, Segoe UI, Roboto, Arial, sans-serif" font-size="16" fill="#334155">Estimated final grade out of 20</text>
    <text x="24" y="190" font-family="Inter, Segoe UI, Roboto, Arial, sans-serif" font-size="14" fill="#475569">Model: RandomForestRegressor • R² ~ 0.799 • RMSE ~ 2.03</text>
  </g>
</svg>

